<mxfile host="app.diagrams.net" modified="2021-07-26T08:04:14.594Z" agent="5.0 (Macintosh; Intel Mac OS X 10_14_4) AppleWebKit/537.36 (KHTML, like Gecko) Chrome/91.0.4472.164 Safari/537.36" etag="seJxjQ1sGfYVeHqGVBXM" version="14.9.2" type="github">
  <diagram id="WAed_Lqc0ylB0MXPOHO0" name="Page-1">
    <mxGraphModel dx="1772" dy="955" grid="1" gridSize="10" guides="1" tooltips="1" connect="1" arrows="1" fold="1" page="1" pageScale="1" pageWidth="850" pageHeight="1100" math="0" shadow="0">
      <root>
        <mxCell id="0" />
        <mxCell id="1" parent="0" />
        <mxCell id="3MVS5KP2mk6HAh1XmtbX-31" value="" style="endArrow=classic;html=1;exitX=0.5;exitY=1;exitDx=0;exitDy=0;" parent="1" source="3MVS5KP2mk6HAh1XmtbX-17" edge="1">
          <mxGeometry width="50" height="50" relative="1" as="geometry">
            <mxPoint x="420" y="610" as="sourcePoint" />
            <mxPoint x="420" y="730" as="targetPoint" />
          </mxGeometry>
        </mxCell>
        <mxCell id="3MVS5KP2mk6HAh1XmtbX-1" value="Referred &lt;br&gt;User RF" style="shape=umlActor;verticalLabelPosition=bottom;verticalAlign=top;html=1;outlineConnect=0;" parent="1" vertex="1">
          <mxGeometry x="405" y="40" width="30" height="60" as="geometry" />
        </mxCell>
        <mxCell id="3MVS5KP2mk6HAh1XmtbX-3" value="" style="shape=process;whiteSpace=wrap;html=1;backgroundOutline=1;" parent="1" vertex="1">
          <mxGeometry x="355" y="320" width="120" height="60" as="geometry" />
        </mxCell>
        <mxCell id="3MVS5KP2mk6HAh1XmtbX-5" style="edgeStyle=orthogonalEdgeStyle;rounded=0;orthogonalLoop=1;jettySize=auto;html=1;" parent="1" source="3MVS5KP2mk6HAh1XmtbX-4" edge="1">
          <mxGeometry relative="1" as="geometry">
            <mxPoint x="400" y="80" as="targetPoint" />
            <Array as="points">
              <mxPoint x="390" y="80" />
            </Array>
          </mxGeometry>
        </mxCell>
        <mxCell id="3MVS5KP2mk6HAh1XmtbX-4" value="Registered&lt;br&gt;User RU" style="shape=umlActor;verticalLabelPosition=bottom;verticalAlign=top;html=1;outlineConnect=0;" parent="1" vertex="1">
          <mxGeometry x="140" y="40" width="30" height="60" as="geometry" />
        </mxCell>
        <mxCell id="3MVS5KP2mk6HAh1XmtbX-6" value="" style="endArrow=classic;html=1;entryX=0.461;entryY=-0.037;entryDx=0;entryDy=0;entryPerimeter=0;" parent="1" edge="1">
          <mxGeometry width="50" height="50" relative="1" as="geometry">
            <mxPoint x="420" y="142.22" as="sourcePoint" />
            <mxPoint x="420.32000000000016" y="320" as="targetPoint" />
            <Array as="points">
              <mxPoint x="420" y="252.22" />
            </Array>
          </mxGeometry>
        </mxCell>
        <mxCell id="3MVS5KP2mk6HAh1XmtbX-7" value="KRYTO ARMY" style="text;html=1;strokeColor=none;fillColor=none;align=center;verticalAlign=middle;whiteSpace=wrap;rounded=0;" parent="1" vertex="1">
          <mxGeometry x="395" y="340" width="40" height="20" as="geometry" />
        </mxCell>
        <mxCell id="3MVS5KP2mk6HAh1XmtbX-8" value="Buys crypto from fiat gateway" style="text;html=1;strokeColor=none;fillColor=none;align=center;verticalAlign=middle;whiteSpace=wrap;rounded=0;" parent="1" vertex="1">
          <mxGeometry x="220" y="390" width="95" height="40" as="geometry" />
        </mxCell>
        <mxCell id="3MVS5KP2mk6HAh1XmtbX-9" value="" style="shape=cylinder3;whiteSpace=wrap;html=1;boundedLbl=1;backgroundOutline=1;size=15;" parent="1" vertex="1">
          <mxGeometry x="385" y="730" width="60" height="80" as="geometry" />
        </mxCell>
        <mxCell id="3MVS5KP2mk6HAh1XmtbX-10" value="Company" style="text;html=1;strokeColor=none;fillColor=none;align=center;verticalAlign=middle;whiteSpace=wrap;rounded=0;" parent="1" vertex="1">
          <mxGeometry x="395" y="770" width="40" height="20" as="geometry" />
        </mxCell>
        <mxCell id="3MVS5KP2mk6HAh1XmtbX-11" value="" style="endArrow=classic;html=1;" parent="1" edge="1">
          <mxGeometry width="50" height="50" relative="1" as="geometry">
            <mxPoint x="420" y="380" as="sourcePoint" />
            <mxPoint x="420" y="480" as="targetPoint" />
          </mxGeometry>
        </mxCell>
        <mxCell id="3MVS5KP2mk6HAh1XmtbX-15" value="1.5% of every buy tranx amount goes to company account&lt;br&gt;&lt;b&gt;This does not go the the RU&lt;/b&gt;" style="text;html=1;strokeColor=none;fillColor=none;align=center;verticalAlign=middle;whiteSpace=wrap;rounded=0;" parent="1" vertex="1">
          <mxGeometry x="55" y="640" width="165" height="70" as="geometry" />
        </mxCell>
        <mxCell id="3MVS5KP2mk6HAh1XmtbX-16" value="Wallet" style="rounded=0;whiteSpace=wrap;html=1;" parent="1" vertex="1">
          <mxGeometry x="160" y="480" width="120" height="60" as="geometry" />
        </mxCell>
        <mxCell id="3MVS5KP2mk6HAh1XmtbX-17" value="Farms" style="rounded=0;whiteSpace=wrap;html=1;" parent="1" vertex="1">
          <mxGeometry x="360" y="480" width="120" height="60" as="geometry" />
        </mxCell>
        <mxCell id="3MVS5KP2mk6HAh1XmtbX-18" value="DEX" style="rounded=0;whiteSpace=wrap;html=1;" parent="1" vertex="1">
          <mxGeometry x="560" y="480" width="120" height="60" as="geometry" />
        </mxCell>
        <mxCell id="3MVS5KP2mk6HAh1XmtbX-19" value="" style="endArrow=classic;html=1;exitX=0;exitY=0.5;exitDx=0;exitDy=0;" parent="1" source="3MVS5KP2mk6HAh1XmtbX-3" edge="1">
          <mxGeometry width="50" height="50" relative="1" as="geometry">
            <mxPoint x="120" y="340" as="sourcePoint" />
            <mxPoint x="220" y="350" as="targetPoint" />
          </mxGeometry>
        </mxCell>
        <mxCell id="3MVS5KP2mk6HAh1XmtbX-20" value="" style="endArrow=classic;html=1;entryX=0.5;entryY=0;entryDx=0;entryDy=0;" parent="1" target="3MVS5KP2mk6HAh1XmtbX-16" edge="1">
          <mxGeometry width="50" height="50" relative="1" as="geometry">
            <mxPoint x="220" y="350" as="sourcePoint" />
            <mxPoint x="170" y="290" as="targetPoint" />
          </mxGeometry>
        </mxCell>
        <mxCell id="3MVS5KP2mk6HAh1XmtbX-21" value="All Farm referral income goes to company account&lt;br&gt;&lt;b&gt;&lt;i&gt;&lt;u&gt;Referral API end-point&lt;/u&gt;&lt;/i&gt;&lt;/b&gt;" style="text;html=1;strokeColor=none;fillColor=none;align=center;verticalAlign=middle;whiteSpace=wrap;rounded=0;" parent="1" vertex="1">
          <mxGeometry x="330" y="630" width="95" height="80" as="geometry" />
        </mxCell>
        <mxCell id="3MVS5KP2mk6HAh1XmtbX-24" value="" style="endArrow=classic;startArrow=classic;html=1;entryX=0;entryY=0.5;entryDx=0;entryDy=0;" parent="1" target="3MVS5KP2mk6HAh1XmtbX-17" edge="1">
          <mxGeometry width="50" height="50" relative="1" as="geometry">
            <mxPoint x="280" y="510" as="sourcePoint" />
            <mxPoint x="330" y="460" as="targetPoint" />
          </mxGeometry>
        </mxCell>
        <mxCell id="3MVS5KP2mk6HAh1XmtbX-25" value="" style="endArrow=classic;startArrow=classic;html=1;entryX=0;entryY=0.5;entryDx=0;entryDy=0;" parent="1" edge="1">
          <mxGeometry width="50" height="50" relative="1" as="geometry">
            <mxPoint x="480" y="509.66" as="sourcePoint" />
            <mxPoint x="560" y="509.66" as="targetPoint" />
          </mxGeometry>
        </mxCell>
        <mxCell id="3MVS5KP2mk6HAh1XmtbX-26" value="" style="endArrow=classic;html=1;" parent="1" edge="1">
          <mxGeometry width="50" height="50" relative="1" as="geometry">
            <mxPoint x="475" y="350" as="sourcePoint" />
            <mxPoint x="620" y="350" as="targetPoint" />
          </mxGeometry>
        </mxCell>
        <mxCell id="3MVS5KP2mk6HAh1XmtbX-27" value="" style="endArrow=classic;html=1;entryX=0.5;entryY=0;entryDx=0;entryDy=0;" parent="1" target="3MVS5KP2mk6HAh1XmtbX-18" edge="1">
          <mxGeometry width="50" height="50" relative="1" as="geometry">
            <mxPoint x="620" y="350" as="sourcePoint" />
            <mxPoint x="629.9999999999998" y="360" as="targetPoint" />
          </mxGeometry>
        </mxCell>
        <mxCell id="3MVS5KP2mk6HAh1XmtbX-28" value="" style="endArrow=classic;startArrow=classic;html=1;exitX=0.5;exitY=1;exitDx=0;exitDy=0;" parent="1" source="3MVS5KP2mk6HAh1XmtbX-18" edge="1">
          <mxGeometry width="50" height="50" relative="1" as="geometry">
            <mxPoint x="620" y="600" as="sourcePoint" />
            <mxPoint x="220" y="540" as="targetPoint" />
            <Array as="points">
              <mxPoint x="620" y="600" />
              <mxPoint x="220" y="600" />
            </Array>
          </mxGeometry>
        </mxCell>
        <mxCell id="3MVS5KP2mk6HAh1XmtbX-29" value="" style="endArrow=classic;html=1;exitX=-0.007;exitY=0.632;exitDx=0;exitDy=0;exitPerimeter=0;entryX=0.455;entryY=0;entryDx=0;entryDy=0;entryPerimeter=0;" parent="1" source="3MVS5KP2mk6HAh1XmtbX-16" target="3MVS5KP2mk6HAh1XmtbX-15" edge="1">
          <mxGeometry width="50" height="50" relative="1" as="geometry">
            <mxPoint x="120" y="470" as="sourcePoint" />
            <mxPoint x="170" y="420" as="targetPoint" />
            <Array as="points">
              <mxPoint x="130" y="518" />
            </Array>
          </mxGeometry>
        </mxCell>
        <mxCell id="3MVS5KP2mk6HAh1XmtbX-32" value="1% of every DEX transaction amount goes to company account&lt;br&gt;&lt;b&gt;&lt;i&gt;&lt;u&gt;Referral API end-point&lt;/u&gt;&lt;/i&gt;&lt;/b&gt;" style="text;html=1;strokeColor=none;fillColor=none;align=center;verticalAlign=middle;whiteSpace=wrap;rounded=0;" parent="1" vertex="1">
          <mxGeometry x="620" y="650" width="165" height="60" as="geometry" />
        </mxCell>
        <mxCell id="3MVS5KP2mk6HAh1XmtbX-33" value="" style="endArrow=classic;html=1;" parent="1" target="3MVS5KP2mk6HAh1XmtbX-32" edge="1">
          <mxGeometry width="50" height="50" relative="1" as="geometry">
            <mxPoint x="680" y="510" as="sourcePoint" />
            <mxPoint x="730" y="460" as="targetPoint" />
            <Array as="points">
              <mxPoint x="700" y="510" />
            </Array>
          </mxGeometry>
        </mxCell>
        <mxCell id="3MVS5KP2mk6HAh1XmtbX-34" value="" style="endArrow=classic;html=1;exitX=0.5;exitY=1;exitDx=0;exitDy=0;entryX=1.005;entryY=0.582;entryDx=0;entryDy=0;entryPerimeter=0;" parent="1" source="3MVS5KP2mk6HAh1XmtbX-32" target="3MVS5KP2mk6HAh1XmtbX-9" edge="1">
          <mxGeometry width="50" height="50" relative="1" as="geometry">
            <mxPoint x="560" y="710" as="sourcePoint" />
            <mxPoint x="610" y="660" as="targetPoint" />
            <Array as="points">
              <mxPoint x="698" y="777" />
            </Array>
          </mxGeometry>
        </mxCell>
        <mxCell id="3MVS5KP2mk6HAh1XmtbX-35" value="" style="endArrow=none;dashed=1;html=1;dashPattern=1 3;strokeWidth=2;" parent="1" edge="1">
          <mxGeometry width="50" height="50" relative="1" as="geometry">
            <mxPoint x="430" y="680" as="sourcePoint" />
            <mxPoint x="630" y="680" as="targetPoint" />
          </mxGeometry>
        </mxCell>
        <mxCell id="3MVS5KP2mk6HAh1XmtbX-36" value="" style="endArrow=none;dashed=1;html=1;dashPattern=1 3;strokeWidth=2;" parent="1" edge="1">
          <mxGeometry width="50" height="50" relative="1" as="geometry">
            <mxPoint x="230" y="680" as="sourcePoint" />
            <mxPoint x="329.9999999999998" y="680.31" as="targetPoint" />
          </mxGeometry>
        </mxCell>
        <mxCell id="3MVS5KP2mk6HAh1XmtbX-37" value="" style="endArrow=none;dashed=1;html=1;dashPattern=1 3;strokeWidth=2;entryX=0.223;entryY=-0.013;entryDx=0;entryDy=0;entryPerimeter=0;" parent="1" target="3MVS5KP2mk6HAh1XmtbX-15" edge="1">
          <mxGeometry width="50" height="50" relative="1" as="geometry">
            <mxPoint x="92" y="78.27586206896552" as="sourcePoint" />
            <mxPoint x="89.99999999999977" y="650.31" as="targetPoint" />
          </mxGeometry>
        </mxCell>
        <mxCell id="3MVS5KP2mk6HAh1XmtbX-39" value="" style="endArrow=block;dashed=1;html=1;dashPattern=1 3;strokeWidth=2;endFill=1;" parent="1" edge="1">
          <mxGeometry width="50" height="50" relative="1" as="geometry">
            <mxPoint x="90" y="80" as="sourcePoint" />
            <mxPoint x="130" y="80" as="targetPoint" />
          </mxGeometry>
        </mxCell>
        <mxCell id="3MVS5KP2mk6HAh1XmtbX-40" value="" style="endArrow=classic;html=1;" parent="1" edge="1">
          <mxGeometry width="50" height="50" relative="1" as="geometry">
            <mxPoint x="410" y="810" as="sourcePoint" />
            <mxPoint x="90" y="80" as="targetPoint" />
            <Array as="points">
              <mxPoint x="410" y="880" />
              <mxPoint x="40" y="880" />
              <mxPoint x="40" y="80" />
            </Array>
          </mxGeometry>
        </mxCell>
        <mxCell id="3MVS5KP2mk6HAh1XmtbX-41" value="&lt;b&gt;With every referral API end-point 10% goes to registered user&lt;/b&gt;" style="text;html=1;strokeColor=none;fillColor=none;align=center;verticalAlign=middle;whiteSpace=wrap;rounded=0;" parent="1" vertex="1">
          <mxGeometry x="170" y="790" width="140" height="90" as="geometry" />
        </mxCell>
        <mxCell id="3MVS5KP2mk6HAh1XmtbX-42" value="10% of total amount goes to the registered user&amp;nbsp;" style="text;html=1;strokeColor=none;fillColor=none;align=center;verticalAlign=middle;whiteSpace=wrap;rounded=0;" parent="1" vertex="1">
          <mxGeometry x="92.5" y="210" width="125" height="80" as="geometry" />
        </mxCell>
        <mxCell id="3MVS5KP2mk6HAh1XmtbX-43" value="Deposit to Farms" style="text;html=1;strokeColor=none;fillColor=none;align=center;verticalAlign=middle;whiteSpace=wrap;rounded=0;" parent="1" vertex="1">
          <mxGeometry x="290" y="470" width="50" height="30" as="geometry" />
        </mxCell>
        <mxCell id="3MVS5KP2mk6HAh1XmtbX-44" value="1% of Farm&amp;nbsp; deposit goes to company account&lt;br&gt;&lt;b&gt;&lt;i&gt;&lt;u&gt;Referral API&amp;nbsp;&lt;/u&gt;&lt;/i&gt;&lt;/b&gt;&lt;b&gt;&lt;i&gt;&lt;u&gt;end-&lt;/u&gt;&lt;/i&gt;&lt;/b&gt;&lt;b&gt;&lt;i&gt;&lt;u&gt;point&lt;/u&gt;&lt;/i&gt;&lt;/b&gt;" style="text;html=1;strokeColor=none;fillColor=none;align=center;verticalAlign=middle;whiteSpace=wrap;rounded=0;" parent="1" vertex="1">
          <mxGeometry x="279" y="520" width="90" height="80" as="geometry" />
        </mxCell>
        <mxCell id="3MVS5KP2mk6HAh1XmtbX-45" value="" style="endArrow=classic;html=1;" parent="1" edge="1">
          <mxGeometry width="50" height="50" relative="1" as="geometry">
            <mxPoint x="323" y="600" as="sourcePoint" />
            <mxPoint x="380" y="780" as="targetPoint" />
            <Array as="points">
              <mxPoint x="323" y="780" />
            </Array>
          </mxGeometry>
        </mxCell>
        <mxCell id="3MVS5KP2mk6HAh1XmtbX-46" value="10% of total amount goes to the registered user" style="text;html=1;strokeColor=none;fillColor=none;align=center;verticalAlign=middle;whiteSpace=wrap;rounded=0;" parent="1" vertex="1">
          <mxGeometry x="150" y="890" width="117.5" height="60" as="geometry" />
        </mxCell>
        <mxCell id="8kL_66KzVX8J2HjNe21k-1" value="" style="shape=cylinder3;whiteSpace=wrap;html=1;boundedLbl=1;backgroundOutline=1;size=15;" vertex="1" parent="1">
          <mxGeometry x="107.5" y="710" width="60" height="80" as="geometry" />
        </mxCell>
        <mxCell id="8kL_66KzVX8J2HjNe21k-2" value="Company" style="text;html=1;strokeColor=none;fillColor=none;align=center;verticalAlign=middle;whiteSpace=wrap;rounded=0;" vertex="1" parent="1">
          <mxGeometry x="117.5" y="750" width="40" height="20" as="geometry" />
        </mxCell>
        <mxCell id="8kL_66KzVX8J2HjNe21k-3" value="or deposits from existing wallet" style="text;html=1;strokeColor=none;fillColor=none;align=center;verticalAlign=middle;whiteSpace=wrap;rounded=0;" vertex="1" parent="1">
          <mxGeometry x="122.5" y="390" width="95" height="40" as="geometry" />
        </mxCell>
      </root>
    </mxGraphModel>
  </diagram>
</mxfile>
